<svg xmlns="http://www.w3.org/2000/svg" xmlns:xlink="http://www.w3.org/1999/xlink" width="1080" height="1080" viewBox="0 0 1080 1080">
  <defs>
    <clipPath id="clip-SPRK_default_preset_name_web_1920_1">
      <rect width="1080" height="1080"/>
    </clipPath>
  </defs>
  <g id="SPRK_default_preset_name_web_1920_1" data-name="SPRK_default_preset_name_web_1920 – 1" clip-path="url(#clip-SPRK_default_preset_name_web_1920_1)">
    <g id="_x36__stroke">
      <g id="WhatsApp">
        <rect id="Rectangle_1" data-name="Rectangle 1" width="1080" height="1080" fill="none"/>
        <path id="WhatsApp_1_" d="M389,274.231c-10.469-25.07-18.406-26.024-34.265-26.665-5.4-.312-11.413-.624-18.086-.624-20.633,0-42.2,6.031-55.219,19.36-15.859,16.188-55.211,53.954-55.211,131.392s56.476,152.346,64.093,162.831c7.938,10.46,110.109,171.7,268.756,237.409,124.061,51.415,160.874,46.648,189.108,40.626,41.25-8.883,92.968-39.369,105.984-76.173,13.008-36.821,13.008-68.243,9.195-74.907s-14.281-10.46-30.14-18.406-92.968-46.024-107.561-51.1c-14.281-5.39-27.922-3.484-38.7,11.751-15.235,21.266-30.14,42.852-42.2,55.86-9.515,10.156-25.07,11.43-38.078,6.031-17.453-7.288-66.312-24.446-126.6-78.079-46.648-41.57-78.375-93.3-87.569-108.852-9.2-15.867-.953-25.079,6.343-33.641,7.938-9.844,15.547-16.82,23.476-26.032s12.375-13.961,17.453-24.758c5.4-10.469,1.586-21.266-2.219-29.2C433.738,383.091,402.012,305.645,389,274.231ZM539.714,0C242.091,0,0,242.159,0,539.865A535.89,535.89,0,0,0,102.8,856.3L35.53,1056.888l207.514-66.32a535.6,535.6,0,0,0,296.99,89.18c297.622,0,539.714-242.176,539.714-539.865C1079.748,242.176,837.657.017,540.034.017h-.312V0Z" fill="#481e14" fill-rule="evenodd"/>
      </g>
    </g>
  </g>
</svg>
