<svg xmlns="http://www.w3.org/2000/svg" xmlns:xlink="http://www.w3.org/1999/xlink" width="1086" height="1046" viewBox="0 0 1086 1046">
  <defs>
    <linearGradient id="linear-gradient" x1="0.363" y1="0.302" x2="0.363" y2="0.967" gradientUnits="objectBoundingBox">
      <stop offset="0" stop-color="#fe8700"/>
      <stop offset="1" stop-color="#f2be10"/>
    </linearGradient>
    <clipPath id="clip-Web_1920_14">
      <rect width="1086" height="1046"/>
    </clipPath>
  </defs>
  <g id="Web_1920_14" data-name="Web 1920 – 14" clip-path="url(#clip-Web_1920_14)">
    <g id="Group_2" data-name="Group 2" transform="translate(-27 -27)">
      <path id="Path_2" data-name="Path 2" d="M39.641,234.272l227.924,24.91s-16.448,111,15.084,192.513,53.671,121.1,53.671,121.1,4.7,10.734-3.019,15.431-2.348,9.728-2.348,9.728,1.342,5.032-4.025,9.728,5.745,9.2,9.392,16.856-5.493,4.025,0,11.405,8.68,3.774,13.921,7.715a22.932,22.932,0,0,1,7.044,8.051s8.051,12.411-5.367,9.392-2.348,6.373,15.766,11.741-6.374,16.437-6.374,16.437,3.019,23.146,66.418,47.969,120.944,51.92,251.757,36.443S926.372,626.66,926.372,626.66l23.479-32.484s19.456-21.8,7.044,0-14.424,25.158-14.424,25.158-17.443,34.886,7.38,2.684,48.975-53.336,68.431-129.818,7.38,2.348,7.38,4.025-14.424,61.051-27.171,80.843-2.013,19.791,4.361,17.108,4.7,5.7,1.677,8.722-4.7,19.12,9.728,5.7,26.836-44.279,26.836-44.279,8.722-14.089,6.038,0-5.367,23.817,6.038,9.393,32.874-62.058,13.082-6.373c-10.034,28.232-28.669,69.719-67.76,121.934C960.7,739.757,903.945,800.512,789.8,860.379c-158.371,83.062-405.76,68.237-572.555-67.345-77.3-62.839-148.886-182.2-165.77-274.292C-1.959,227.3,155.5,328.089,155.5,328.089Z" transform="translate(9.274 154.449)" fill="#fffdf4"/>
      <path id="Path_1" data-name="Path 1" d="M1037.486,418.985l-20.047-38.791-28.345-45.352a339.785,339.785,0,0,0-33.9-46.333c-20.823-23.9-49.386-49.277-49.386-49.277s-4.251,6.541-14.281,0-25.838-26.165-25.838-26.165l-9.594,6.105H843.444l-10.03-6.105-11.338-9.594s12.646.436,13.518-5.233-26.6-27.909-49.713-30.089,7.849,7.413,7.849,7.413-13.954,3.489-13.518,9.594-4.8-9.158-27.473-17.007-32.27-11.338-32.27-11.338-15.7.872-15.263,6.105a110.568,110.568,0,0,1,0,12.646s8.722-1.744-12.646-3.925-37.067-3.489-37.067-3.489a11.178,11.178,0,0,0-12.646-5.233c-8.722,2.18-32.706-3.816-95.937,8.722s-3.489,12.537-3.489,12.537l41.864-5.669s30.962-3.489,14.391,2.616-1.744-.872-35.758,9.594c-13.2,4.061-37,7.563-61.6,16.9-37.768,14.333-79.516,37.629-101.934,58.98C366.321,299.04,310,331.956,287.4,450.5c-.742,3.891-8.228-4.737-9,0-.729,4.5.7,8.253,0,13.637-.139,1.07-1.556.853-3.168,2.664a37.156,37.156,0,0,0-3.283,4.581s-2.222,23.372-2.064,49.207c.045,7.409,1.841,13.844,2.064,22.191.8,29.938.91,62.071,1.226,71.669.548,16.7,1.548,22.965,1.548,22.965s.619,19.907-10.283-4.514-44.48-86.344-43.608-168.762-8.722,63.667-8.722,63.667-18.206,47.315-30.853,18.1-18.315,14.827-18.315,14.827-5.233,29.217-19.624,7.849-14.391-34.014-14.391-34.014-13.082-14.391-11.338,8.285-4.47,23.875,18.533,69.664c7.5,14.927,7.331,21.228,7.2,30.417-.251,17.51-9.467,27.545-14.391,17.552-7.3-14.827-15.154-36.195-25.62-47.969S82.378,569.562,80.2,560.731s-11.338-26.492-8.285,0,10.03,63.122-10.466,21.259-9.594-23.548-14.391-61.051c-1.022-7.988-2.949-17.178-5.208-28.151-.446-2.167-9.335,5.736-12.386,0-3.935-7.4-1.472-20.39-2.064-24.513-.777-5.4,11.466-10.063,11.1-17.03-1.969-36.96,4.169-83.753,47.237-157.645,75.171-128.97,90.212-115.737,86.857-110.034s-53,74.8-61.722,96.273,12.411,2.013,12.411,2.013,35.371-58.306,108.5-119.532S415.738,52.34,474.413,42.7,590.77,17.334,699.048,33.774c60.744,9.223,129.585,42.4,177.219,72.471,36.56,23.08,59.625,45.445,59.625,45.445a547.219,547.219,0,0,1,75.224,79.844c23.392,30.708,43.039,69.2,56.418,103.309,33.447,85.276,39.825,135.588,39.825,178.106s-15.306,6.236-15.306,6.236-1.7-48.754-15.307-86.169-10.771-18.989-13.039-14.03-5.1,15.73-12.472-5.812-8.5-4.535-8.5-4.535,7.937,14.173,4.535,17.007S1037.486,418.985,1037.486,418.985Z" transform="translate(0 0)" fill="#481e14"/>
      <text id="Sugar" transform="translate(374 471)" fill="#481e14" font-size="183" font-family="GladistaScriptBold, Gladista Script"><tspan x="0" y="0">Sugar</tspan></text>
      <g id="Group_1" data-name="Group 1" transform="translate(532.569 522.518)">
        <text id="Sp_ce" data-name="Sp ce" transform="translate(0.432 227.482)" fill="#481e14" font-size="183" font-family="GladistaScriptBold, Gladista Script"><tspan x="0" y="0">Sp ce</tspan></text>
        <g id="Chili" transform="translate(188.328 55.545)">
          <path id="Path_6" data-name="Path 6" d="M127.855,76.78c-1.6,2.161-4.6,9.4-1.691,42.376,3.289,37.021-14.47,45.383-18.7,75.263-3.195,22.739,8.832,35.893,14.846,40.873a.885.885,0,0,0,1.221-.094.715.715,0,0,0,.094-.846c-1.973-4.228-4.7-12.5-4.51-24.994.376-18.98,6.2-17.007,20.953-51.866,14.752-34.766.282-77.612.282-77.612s-1.973-7.047-5.074-8.081c-4.134,1.5-5.826,2.819-7.423,4.98Z" transform="translate(-106.935 -13.709)" fill="#bb1f21"/>
          <path id="Path_7" data-name="Path 7" d="M129.2,73.046s.658-1.128.658-1.221a9.782,9.782,0,0,1,2.067-2.349,10.637,10.637,0,0,0,1.222-.94c.188-.188.564-.376.658-.564a3.339,3.339,0,0,0,.188-.94c0-.658-.094-1.315-.094-1.879-.094-2.349-.282-4.6-.564-6.953-.564-5.45-1.222-10.806-1.973-16.255-.658-5.168-1.6-10.336-1.785-15.5a31.7,31.7,0,0,1,.188-5.168c.47-4.134,2.161-8.269,5.638-10.524A4.659,4.659,0,0,1,137.281,10a2.271,2.271,0,0,1,1.879.564,2.143,2.143,0,0,1,.564,1.128,1.683,1.683,0,0,1-.94,2.067c-.752.282-1.6-.094-2.443-.094a3.38,3.38,0,0,0-1.973,1.221,11.114,11.114,0,0,0-1.879,4.6c-1.785,8.55.282,17.007,1.5,25.463.846,5.826,1.6,11.651,2.443,17.477L136.9,66c0,.188,0,1.221.188,1.315a11.944,11.944,0,0,1,4.134,7.8s-1.785-.47-1.879-.564a13.061,13.061,0,0,1-1.973-1.034A8.478,8.478,0,0,0,135.5,72.2c-.564-.188-.658.188-1.128.376a6.135,6.135,0,0,1-1.879.47,9.116,9.116,0,0,1-1.6-.094c-.282,0-.658-.094-.94-.094h-.47c-.094.188-.188.188-.282.188Z" transform="translate(-108.28 -9.975)" fill="#1d893b"/>
        </g>
        <g id="hot-icon" transform="translate(181.353 24.413)">
          <path id="Path_8" data-name="Path 8" d="M12.97,38.249C10.939,20.068,21.563,7.28,41.479,0c-12.2,15.823,10.4,32.966,11.642,49.4,2.92-4.981,4.578-11.634,4.906-20.52C72.961,52.31,60.581,90.6,27.717,85.1a27.908,27.908,0,0,1-8.575-2.875C7.16,75.819,0,61.876,0,48.559c0-8.488,3.63-16.066,8.329-22.088C8.957,32.37,10.293,36.771,12.97,38.249Z" fill="#f60" fill-rule="evenodd"/>
          <path id="Path_9" data-name="Path 9" d="M91.467,219.791c-3.655-9.655-3.15-25.242,7.088-30.711.072,17.922,17.342,20.2,14.139,39.333,2.954-3.414,4.439-8.878,4.705-13.186,4.682,10.948,1.011,19.712-5.661,24.174-20.286,13.563-37.755-13.936-26.14-29.011.348,3.361,4.377,8.56,5.869,9.4Z" transform="translate(-68.166 -157.42)" fill-rule="evenodd" fill="url(#linear-gradient)"/>
        </g>
      </g>
      <text id="and" transform="translate(809 523)" fill="#481e14" font-size="94" font-family="GladistaScriptItalic, Gladista Script"><tspan x="0" y="0">and</tspan></text>
    </g>
  </g>
</svg>
